solid Untitled-5b07da3d
facet normal 0.0 0.0 -1.0
  outer loop
    vertex 24.43750000000046 34.12772838456064 0.0
    vertex 0.0 0.0 0.0
    vertex 0.0 34.12772838456066 0.0
  endloop
endfacet
facet normal 0.0 0.0 -1.0
  outer loop
    vertex 0.0 0.0 0.0
    vertex 24.43750000000046 34.12772838456064 0.0
    vertex 24.437500000000092 0.0 0.0
  endloop
endfacet
facet normal 0.0 0.0 1.0
  outer loop
    vertex 6.322740767963561 24.740113058270122 12.814929428641584
    vertex 6.5170180387328225 27.602516329719734 12.814929428641584
    vertex 6.231458133453854 26.184103237955544 12.814929428641584
  endloop
endfacet
facet normal 0.0 0.0 1.0
  outer loop
    vertex 6.5170180387328225 27.602516329719734 12.814929428641584
    vertex 6.322740767963561 24.740113058270122 12.814929428641584
    vertex 6.784645181571791 23.368951335102423 12.814929428641584
  endloop
endfacet
facet normal 0.0 0.0 1.0
  outer loop
    vertex 6.5170180387328225 27.602516329719734 12.814929428641584
    vertex 6.784645181571791 23.368951335102423 12.814929428641584
    vertex 7.15996004816576 28.89868982539742 12.814929428641584
  endloop
endfacet
facet normal 0.0 0.0 1.0
  outer loop
    vertex 7.15996004816576 28.89868982539742 12.814929428641584
    vertex 6.784645181571791 23.368951335102423 12.814929428641584
    vertex 7.585693351824285 22.164060473934434 12.814929428641584
  endloop
endfacet
facet normal 0.0 0.0 1.0
  outer loop
    vertex 7.15996004816576 28.89868982539742 12.814929428641584
    vertex 7.585693351824285 22.164060473934434 12.814929428641584
    vertex 8.116468726321719 29.984291643286152 12.814929428641584
  endloop
endfacet
facet normal 0.0 0.0 1.0
  outer loop
    vertex 8.116468726321719 29.984291643286152 12.814929428641584
    vertex 7.585693351824285 22.164060473934434 12.814929428641584
    vertex 8.671295169713018 21.20755179577848 12.814929428641584
  endloop
endfacet
facet normal 0.0 0.0 1.0
  outer loop
    vertex 8.116468726321719 29.984291643286152 12.814929428641584
    vertex 8.671295169713018 21.20755179577848 12.814929428641584
    vertex 9.321359587489699 30.785339813538645 12.814929428641584
  endloop
endfacet
facet normal 0.0 0.0 1.0
  outer loop
    vertex 9.321359587489699 30.785339813538645 12.814929428641584
    vertex 8.671295169713018 21.20755179577848 12.814929428641584
    vertex 9.967468665390705 20.564609786345546 12.814929428641584
  endloop
endfacet
facet normal 0.0 0.0 1.0
  outer loop
    vertex 9.321359587489699 30.785339813538645 12.814929428641584
    vertex 9.967468665390705 20.564609786345546 12.814929428641584
    vertex 10.6925213106574 31.247244227146876 12.814929428641584
  endloop
endfacet
facet normal 0.0 0.0 1.0
  outer loop
    vertex 10.6925213106574 31.247244227146876 12.814929428641584
    vertex 9.967468665390705 20.564609786345546 12.814929428641584
    vertex 11.385881757154891 20.27904988106658 12.814929428641584
  endloop
endfacet
facet normal 0.0 0.0 1.0
  outer loop
    vertex 10.6925213106574 31.247244227146876 12.814929428641584
    vertex 11.385881757154891 20.27904988106658 12.814929428641584
    vertex 12.136511490342825 31.338526861656586 12.814929428641584
  endloop
endfacet
facet normal 0.0 0.0 1.0
  outer loop
    vertex 12.136511490342825 31.338526861656586 12.814929428641584
    vertex 11.385881757154891 20.27904988106658 12.814929428641584
    vertex 12.829871936840314 20.370332515576287 12.814929428641584
  endloop
endfacet
facet normal 0.0 0.0 1.0
  outer loop
    vertex 12.136511490342825 31.338526861656586 12.814929428641584
    vertex 12.829871936840314 20.370332515576287 12.814929428641584
    vertex 13.554924582107015 31.05296695637761 12.814929428641584
  endloop
endfacet
facet normal 0.0 0.0 1.0
  outer loop
    vertex 13.554924582107015 31.05296695637761 12.814929428641584
    vertex 12.829871936840314 20.370332515576287 12.814929428641584
    vertex 14.201033660008015 20.832236929184514 12.814929428641584
  endloop
endfacet
facet normal 0.0 0.0 1.0
  outer loop
    vertex 13.554924582107015 31.05296695637761 12.814929428641584
    vertex 14.201033660008015 20.832236929184514 12.814929428641584
    vertex 14.851098077784703 30.410024946944674 12.814929428641584
  endloop
endfacet
facet normal 0.0 0.0 1.0
  outer loop
    vertex 14.851098077784703 30.410024946944674 12.814929428641584
    vertex 14.201033660008015 20.832236929184514 12.814929428641584
    vertex 15.405924521175994 21.633285099437003 12.814929428641584
  endloop
endfacet
facet normal 0.0 0.0 1.0
  outer loop
    vertex 14.851098077784703 30.410024946944674 12.814929428641584
    vertex 15.405924521175994 21.633285099437003 12.814929428641584
    vertex 15.936699895673433 29.45351626878871 12.814929428641584
  endloop
endfacet
facet normal 0.0 0.0 1.0
  outer loop
    vertex 15.936699895673433 29.45351626878871 12.814929428641584
    vertex 15.405924521175994 21.633285099437003 12.814929428641584
    vertex 16.36243319933195 22.718886917325733 12.814929428641584
  endloop
endfacet
facet normal 0.0 0.0 1.0
  outer loop
    vertex 15.936699895673433 29.45351626878871 12.814929428641584
    vertex 16.36243319933195 22.718886917325733 12.814929428641584
    vertex 16.73774806592592 28.248625407620736 12.814929428641584
  endloop
endfacet
facet normal 0.0 0.0 1.0
  outer loop
    vertex 16.73774806592592 28.248625407620736 12.814929428641584
    vertex 16.36243319933195 22.718886917325733 12.814929428641584
    vertex 17.00537520876489 24.015060413003418 12.814929428641584
  endloop
endfacet
facet normal 0.0 0.0 1.0
  outer loop
    vertex 16.73774806592592 28.248625407620736 12.814929428641584
    vertex 17.00537520876489 24.015060413003418 12.814929428641584
    vertex 17.19965247953415 26.87746368445303 12.814929428641584
  endloop
endfacet
facet normal 0.0 0.0 1.0
  outer loop
    vertex 17.19965247953415 26.87746368445303 12.814929428641584
    vertex 17.00537520876489 24.015060413003418 12.814929428641584
    vertex 17.290935114043855 25.4334735047676 12.814929428641584
  endloop
endfacet
facet normal 0.9980078658199845 0.063089616906747 0.0
  outer loop
    vertex 6.231458133453854 26.184103237955544 12.814929428641584
    vertex 6.322740767963561 24.740113058270122 13.697329428641584
    vertex 6.322740767963561 24.740113058270122 12.814929428641584
  endloop
endfacet
facet normal 0.9980078658199845 0.063089616906747 0.0
  outer loop
    vertex 6.322740767963561 24.740113058270122 13.697329428641584
    vertex 6.231458133453854 26.184103237955544 12.814929428641584
    vertex 6.231458133453854 26.184103237955544 13.697329428641584
  endloop
endfacet
facet normal 0.9476727780314702 0.31924333317724274 0.0
  outer loop
    vertex 6.322740767963561 24.740113058270122 12.814929428641584
    vertex 6.784645181571791 23.368951335102423 13.697329428641584
    vertex 6.784645181571791 23.368951335102423 12.814929428641584
  endloop
endfacet
facet normal 0.9476727780314702 0.31924333317724274 0.0
  outer loop
    vertex 6.784645181571791 23.368951335102423 13.697329428641584
    vertex 6.322740767963561 24.740113058270122 12.814929428641584
    vertex 6.322740767963561 24.740113058270122 13.697329428641584
  endloop
endfacet
facet normal 0.8327553565234241 0.5536411438662638 0.0
  outer loop
    vertex 6.784645181571791 23.368951335102423 12.814929428641584
    vertex 7.585693351824285 22.164060473934434 13.697329428641584
    vertex 7.585693351824285 22.164060473934434 12.814929428641584
  endloop
endfacet
facet normal 0.8327553565234241 0.5536411438662638 0.0
  outer loop
    vertex 7.585693351824285 22.164060473934434 13.697329428641584
    vertex 6.784645181571791 23.368951335102423 12.814929428641584
    vertex 6.784645181571791 23.368951335102423 13.697329428641584
  endloop
endfacet
facet normal 0.661087033661602 0.750309225536048 0.0
  outer loop
    vertex 7.585693351824285 22.164060473934434 13.697329428641584
    vertex 8.671295169713018 21.20755179577848 12.814929428641584
    vertex 7.585693351824285 22.164060473934434 12.814929428641584
  endloop
endfacet
facet normal 0.661087033661602 0.750309225536048 0.0
  outer loop
    vertex 8.671295169713018 21.20755179577848 12.814929428641584
    vertex 7.585693351824285 22.164060473934434 13.697329428641584
    vertex 8.671295169713018 21.20755179577848 13.697329428641584
  endloop
endfacet
facet normal 0.44436672195372034 0.8958449734301718 0.0
  outer loop
    vertex 8.671295169713018 21.20755179577848 13.697329428641584
    vertex 9.967468665390705 20.564609786345546 12.814929428641584
    vertex 8.671295169713018 21.20755179577848 12.814929428641584
  endloop
endfacet
facet normal 0.44436672195372034 0.8958449734301718 0.0
  outer loop
    vertex 9.967468665390705 20.564609786345546 12.814929428641584
    vertex 8.671295169713018 21.20755179577848 13.697329428641584
    vertex 9.967468665390705 20.564609786345546 13.697329428641584
  endloop
endfacet
facet normal 0.19736355249542184 0.9803303668388462 0.0
  outer loop
    vertex 9.967468665390705 20.564609786345546 13.697329428641584
    vertex 11.385881757154891 20.27904988106658 12.814929428641584
    vertex 9.967468665390705 20.564609786345546 12.814929428641584
  endloop
endfacet
facet normal 0.19736355249542184 0.9803303668388462 0.0
  outer loop
    vertex 11.385881757154891 20.27904988106658 12.814929428641584
    vertex 9.967468665390705 20.564609786345546 13.697329428641584
    vertex 11.385881757154891 20.27904988106658 13.697329428641584
  endloop
endfacet
facet normal -0.06308961690674736 0.9980078658199844 0.0
  outer loop
    vertex 11.385881757154891 20.27904988106658 13.697329428641584
    vertex 12.829871936840314 20.370332515576287 12.814929428641584
    vertex 11.385881757154891 20.27904988106658 12.814929428641584
  endloop
endfacet
facet normal -0.06308961690674736 0.9980078658199844 0.0
  outer loop
    vertex 12.829871936840314 20.370332515576287 12.814929428641584
    vertex 11.385881757154891 20.27904988106658 13.697329428641584
    vertex 12.829871936840314 20.370332515576287 13.697329428641584
  endloop
endfacet
facet normal -0.3192433331772414 0.9476727780314707 0.0
  outer loop
    vertex 12.829871936840314 20.370332515576287 13.697329428641584
    vertex 14.201033660008015 20.832236929184514 12.814929428641584
    vertex 12.829871936840314 20.370332515576287 12.814929428641584
  endloop
endfacet
facet normal -0.3192433331772414 0.9476727780314707 0.0
  outer loop
    vertex 14.201033660008015 20.832236929184514 12.814929428641584
    vertex 12.829871936840314 20.370332515576287 13.697329428641584
    vertex 14.201033660008015 20.832236929184514 13.697329428641584
  endloop
endfacet
facet normal -0.5536411438662637 0.832755356523424 0.0
  outer loop
    vertex 14.201033660008015 20.832236929184514 13.697329428641584
    vertex 15.405924521175994 21.633285099437003 12.814929428641584
    vertex 14.201033660008015 20.832236929184514 12.814929428641584
  endloop
endfacet
facet normal -0.5536411438662637 0.832755356523424 0.0
  outer loop
    vertex 15.405924521175994 21.633285099437003 12.814929428641584
    vertex 14.201033660008015 20.832236929184514 13.697329428641584
    vertex 15.405924521175994 21.633285099437003 13.697329428641584
  endloop
endfacet
facet normal -0.750309225536048 0.661087033661602 0.0
  outer loop
    vertex 16.36243319933195 22.718886917325733 13.697329428641584
    vertex 15.405924521175994 21.633285099437003 12.814929428641584
    vertex 15.405924521175994 21.633285099437003 13.697329428641584
  endloop
endfacet
facet normal -0.750309225536048 0.661087033661602 0.0
  outer loop
    vertex 15.405924521175994 21.633285099437003 12.814929428641584
    vertex 16.36243319933195 22.718886917325733 13.697329428641584
    vertex 16.36243319933195 22.718886917325733 12.814929428641584
  endloop
endfacet
facet normal -0.8958449734301703 0.444366721953723 0.0
  outer loop
    vertex 17.00537520876489 24.015060413003418 13.697329428641584
    vertex 16.36243319933195 22.718886917325733 12.814929428641584
    vertex 16.36243319933195 22.718886917325733 13.697329428641584
  endloop
endfacet
facet normal -0.8958449734301703 0.444366721953723 0.0
  outer loop
    vertex 16.36243319933195 22.718886917325733 12.814929428641584
    vertex 17.00537520876489 24.015060413003418 13.697329428641584
    vertex 17.00537520876489 24.015060413003418 12.814929428641584
  endloop
endfacet
facet normal -0.9803303668388459 0.1973635524954239 0.0
  outer loop
    vertex 17.290935114043855 25.4334735047676 13.697329428641584
    vertex 17.00537520876489 24.015060413003418 12.814929428641584
    vertex 17.00537520876489 24.015060413003418 13.697329428641584
  endloop
endfacet
facet normal -0.9803303668388459 0.1973635524954239 0.0
  outer loop
    vertex 17.00537520876489 24.015060413003418 12.814929428641584
    vertex 17.290935114043855 25.4334735047676 13.697329428641584
    vertex 17.290935114043855 25.4334735047676 12.814929428641584
  endloop
endfacet
facet normal -0.9980078658199845 -0.06308961690674517 -0.0
  outer loop
    vertex 17.19965247953415 26.87746368445303 13.697329428641584
    vertex 17.290935114043855 25.4334735047676 12.814929428641584
    vertex 17.290935114043855 25.4334735047676 13.697329428641584
  endloop
endfacet
facet normal -0.9980078658199845 -0.06308961690674517 -0.0
  outer loop
    vertex 17.290935114043855 25.4334735047676 12.814929428641584
    vertex 17.19965247953415 26.87746368445303 13.697329428641584
    vertex 17.19965247953415 26.87746368445303 12.814929428641584
  endloop
endfacet
facet normal -0.9476727780314703 -0.31924333317724196 -0.0
  outer loop
    vertex 16.73774806592592 28.248625407620736 13.697329428641584
    vertex 17.19965247953415 26.87746368445303 12.814929428641584
    vertex 17.19965247953415 26.87746368445303 13.697329428641584
  endloop
endfacet
facet normal -0.9476727780314703 -0.31924333317724196 -0.0
  outer loop
    vertex 17.19965247953415 26.87746368445303 12.814929428641584
    vertex 16.73774806592592 28.248625407620736 13.697329428641584
    vertex 16.73774806592592 28.248625407620736 12.814929428641584
  endloop
endfacet
facet normal -0.8327553565234228 -0.5536411438662655 -0.0
  outer loop
    vertex 15.936699895673433 29.45351626878871 13.697329428641584
    vertex 16.73774806592592 28.248625407620736 12.814929428641584
    vertex 16.73774806592592 28.248625407620736 13.697329428641584
  endloop
endfacet
facet normal -0.8327553565234228 -0.5536411438662655 -0.0
  outer loop
    vertex 16.73774806592592 28.248625407620736 12.814929428641584
    vertex 15.936699895673433 29.45351626878871 13.697329428641584
    vertex 15.936699895673433 29.45351626878871 12.814929428641584
  endloop
endfacet
facet normal -0.661087033661605 -0.7503092255360451 -0.0
  outer loop
    vertex 15.936699895673433 29.45351626878871 13.697329428641584
    vertex 14.851098077784703 30.410024946944674 12.814929428641584
    vertex 15.936699895673433 29.45351626878871 12.814929428641584
  endloop
endfacet
facet normal -0.661087033661605 -0.7503092255360451 -0.0
  outer loop
    vertex 14.851098077784703 30.410024946944674 12.814929428641584
    vertex 15.936699895673433 29.45351626878871 13.697329428641584
    vertex 14.851098077784703 30.410024946944674 13.697329428641584
  endloop
endfacet
facet normal -0.4443667219537215 -0.8958449734301711 -0.0
  outer loop
    vertex 14.851098077784703 30.410024946944674 13.697329428641584
    vertex 13.554924582107015 31.05296695637761 12.814929428641584
    vertex 14.851098077784703 30.410024946944674 12.814929428641584
  endloop
endfacet
facet normal -0.4443667219537215 -0.8958449734301711 -0.0
  outer loop
    vertex 13.554924582107015 31.05296695637761 12.814929428641584
    vertex 14.851098077784703 30.410024946944674 13.697329428641584
    vertex 13.554924582107015 31.05296695637761 13.697329428641584
  endloop
endfacet
facet normal -0.1973635524954269 -0.9803303668388452 -0.0
  outer loop
    vertex 13.554924582107015 31.05296695637761 13.697329428641584
    vertex 12.136511490342825 31.338526861656586 12.814929428641584
    vertex 13.554924582107015 31.05296695637761 12.814929428641584
  endloop
endfacet
facet normal -0.1973635524954269 -0.9803303668388452 -0.0
  outer loop
    vertex 12.136511490342825 31.338526861656586 12.814929428641584
    vertex 13.554924582107015 31.05296695637761 13.697329428641584
    vertex 12.136511490342825 31.338526861656586 13.697329428641584
  endloop
endfacet
facet normal 0.06308961690674729 -0.9980078658199844 0.0
  outer loop
    vertex 12.136511490342825 31.338526861656586 13.697329428641584
    vertex 10.6925213106574 31.247244227146876 12.814929428641584
    vertex 12.136511490342825 31.338526861656586 12.814929428641584
  endloop
endfacet
facet normal 0.06308961690674729 -0.9980078658199844 0.0
  outer loop
    vertex 10.6925213106574 31.247244227146876 12.814929428641584
    vertex 12.136511490342825 31.338526861656586 13.697329428641584
    vertex 10.6925213106574 31.247244227146876 13.697329428641584
  endloop
endfacet
facet normal 0.31924333317724496 -0.9476727780314694 0.0
  outer loop
    vertex 10.6925213106574 31.247244227146876 13.697329428641584
    vertex 9.321359587489699 30.785339813538645 12.814929428641584
    vertex 10.6925213106574 31.247244227146876 12.814929428641584
  endloop
endfacet
facet normal 0.31924333317724496 -0.9476727780314694 0.0
  outer loop
    vertex 9.321359587489699 30.785339813538645 12.814929428641584
    vertex 10.6925213106574 31.247244227146876 13.697329428641584
    vertex 9.321359587489699 30.785339813538645 13.697329428641584
  endloop
endfacet
facet normal 0.5536411438662646 -0.8327553565234235 0.0
  outer loop
    vertex 9.321359587489699 30.785339813538645 13.697329428641584
    vertex 8.116468726321719 29.984291643286152 12.814929428641584
    vertex 9.321359587489699 30.785339813538645 12.814929428641584
  endloop
endfacet
facet normal 0.5536411438662646 -0.8327553565234235 0.0
  outer loop
    vertex 8.116468726321719 29.984291643286152 12.814929428641584
    vertex 9.321359587489699 30.785339813538645 13.697329428641584
    vertex 8.116468726321719 29.984291643286152 13.697329428641584
  endloop
endfacet
facet normal 0.7503092255360474 -0.6610870336616026 0.0
  outer loop
    vertex 8.116468726321719 29.984291643286152 12.814929428641584
    vertex 7.15996004816576 28.89868982539742 13.697329428641584
    vertex 7.15996004816576 28.89868982539742 12.814929428641584
  endloop
endfacet
facet normal 0.7503092255360474 -0.6610870336616026 0.0
  outer loop
    vertex 7.15996004816576 28.89868982539742 13.697329428641584
    vertex 8.116468726321719 29.984291643286152 12.814929428641584
    vertex 8.116468726321719 29.984291643286152 13.697329428641584
  endloop
endfacet
facet normal 0.8958449734301708 -0.4443667219537223 0.0
  outer loop
    vertex 7.15996004816576 28.89868982539742 12.814929428641584
    vertex 6.5170180387328225 27.602516329719734 13.697329428641584
    vertex 6.5170180387328225 27.602516329719734 12.814929428641584
  endloop
endfacet
facet normal 0.8958449734301708 -0.4443667219537223 0.0
  outer loop
    vertex 6.5170180387328225 27.602516329719734 13.697329428641584
    vertex 7.15996004816576 28.89868982539742 12.814929428641584
    vertex 7.15996004816576 28.89868982539742 13.697329428641584
  endloop
endfacet
facet normal 0.980330366838846 -0.19736355249542314 0.0
  outer loop
    vertex 6.5170180387328225 27.602516329719734 12.814929428641584
    vertex 6.231458133453854 26.184103237955544 13.697329428641584
    vertex 6.231458133453854 26.184103237955544 12.814929428641584
  endloop
endfacet
facet normal 0.980330366838846 -0.19736355249542314 0.0
  outer loop
    vertex 6.231458133453854 26.184103237955544 13.697329428641584
    vertex 6.5170180387328225 27.602516329719734 12.814929428641584
    vertex 6.5170180387328225 27.602516329719734 13.697329428641584
  endloop
endfacet
facet normal 0.0 0.0 1.0
  outer loop
    vertex 20.775137361126383 6.696793725113406 3.030100000000002
    vertex 3.6426373611263823 13.486693725113405 3.030100000000002
    vertex 3.6426373611263823 6.696793725113406 3.030100000000002
  endloop
endfacet
facet normal 0.0 0.0 1.0
  outer loop
    vertex 3.6426373611263823 13.486693725113405 3.030100000000002
    vertex 20.775137361126383 6.696793725113406 3.030100000000002
    vertex 20.775137361126383 13.486693725113405 3.030100000000002
  endloop
endfacet
facet normal 0.0 -1.0 0.0
  outer loop
    vertex 20.775137361126383 6.696793725113406 3.030100000000002
    vertex 3.6426373611263823 6.696793725113406 1.6723000000000028
    vertex 20.775137361126383 6.696793725113406 1.6723000000000028
  endloop
endfacet
facet normal 0.0 -1.0 0.0
  outer loop
    vertex 3.6426373611263823 6.696793725113406 1.6723000000000028
    vertex 20.775137361126383 6.696793725113406 3.030100000000002
    vertex 3.6426373611263823 6.696793725113406 3.030100000000002
  endloop
endfacet
facet normal -1.0 -0.0 -0.0
  outer loop
    vertex 3.6426373611263823 13.486693725113405 3.030100000000002
    vertex 3.6426373611263823 6.696793725113406 1.6723000000000028
    vertex 3.6426373611263823 6.696793725113406 3.030100000000002
  endloop
endfacet
facet normal -1.0 -0.0 -0.0
  outer loop
    vertex 3.6426373611263823 6.696793725113406 1.6723000000000028
    vertex 3.6426373611263823 13.486693725113405 3.030100000000002
    vertex 3.6426373611263823 13.486693725113405 1.6723000000000028
  endloop
endfacet
facet normal 0.0 1.0 0.0
  outer loop
    vertex 3.6426373611263823 13.486693725113405 3.030100000000002
    vertex 20.775137361126383 13.486693725113405 1.6723000000000028
    vertex 3.6426373611263823 13.486693725113405 1.6723000000000028
  endloop
endfacet
facet normal 0.0 1.0 0.0
  outer loop
    vertex 20.775137361126383 13.486693725113405 1.6723000000000028
    vertex 3.6426373611263823 13.486693725113405 3.030100000000002
    vertex 20.775137361126383 13.486693725113405 3.030100000000002
  endloop
endfacet
facet normal 1.0 0.0 0.0
  outer loop
    vertex 20.775137361126383 13.486693725113405 1.6723000000000028
    vertex 20.775137361126383 6.696793725113406 3.030100000000002
    vertex 20.775137361126383 6.696793725113406 1.6723000000000028
  endloop
endfacet
facet normal 1.0 0.0 0.0
  outer loop
    vertex 20.775137361126383 6.696793725113406 3.030100000000002
    vertex 20.775137361126383 13.486693725113405 1.6723000000000028
    vertex 20.775137361126383 13.486693725113405 3.030100000000002
  endloop
endfacet
facet normal 0.0 -1.0 0.0
  outer loop
    vertex 24.437500000000092 0.0 1.6723
    vertex 0.0 0.0 0.0
    vertex 24.437500000000092 0.0 0.0
  endloop
endfacet
facet normal 0.0 -1.0 0.0
  outer loop
    vertex 0.0 0.0 0.0
    vertex 24.437500000000092 0.0 1.6723
    vertex 0.0 0.0 1.6723
  endloop
endfacet
facet normal 0.0 0.0 1.0
  outer loop
    vertex 3.6426373611263823 13.486693725113405 1.6723000000000028
    vertex 5.013734677703235 24.48288885153882 1.6723000000000028
    vertex 4.900480820538277 26.274439439841625 1.6723000000000028
  endloop
endfacet
facet normal 0.0 0.0 1.0
  outer loop
    vertex 5.013734677703235 24.48288885153882 1.6723000000000028
    vertex 3.6426373611263823 13.486693725113405 1.6723000000000028
    vertex 5.586816915783111 22.781696124359378 1.6723000000000028
  endloop
endfacet
facet normal 0.0 0.0 1.0
  outer loop
    vertex 5.586816915783111 22.781696124359378 1.6723000000000028
    vertex 3.6426373611263823 13.486693725113405 1.6723000000000028
    vertex 6.580672927315941 21.286794731306674 1.6723000000000028
  endloop
endfacet
facet normal 0.0 0.0 1.0
  outer loop
    vertex 6.580672927315941 21.286794731306674 1.6723000000000028
    vertex 3.6426373611263823 13.486693725113405 1.6723000000000028
    vertex 7.927573067540477 20.100059731875884 1.6723000000000028
  endloop
endfacet
facet normal 0.0 0.0 1.0
  outer loop
    vertex 7.927573067540477 20.100059731875884 1.6723000000000028
    vertex 3.6426373611263823 13.486693725113405 1.6723000000000028
    vertex 20.775137361126383 13.486693725113405 1.6723000000000028
  endloop
endfacet
facet normal 0.0 0.0 1.0
  outer loop
    vertex 7.927573067540477 20.100059731875884 1.6723000000000028
    vertex 20.775137361126383 13.486693725113405 1.6723000000000028
    vertex 9.535728317758142 19.302365155105903 1.6723000000000028
  endloop
endfacet
facet normal 0.0 0.0 1.0
  outer loop
    vertex 9.535728317758142 19.302365155105903 1.6723000000000028
    vertex 20.775137361126383 13.486693725113405 1.6723000000000028
    vertex 11.295545555268808 18.948072568151 1.6723000000000028
  endloop
endfacet
facet normal 0.0 0.0 1.0
  outer loop
    vertex 11.295545555268808 18.948072568151 1.6723000000000028
    vertex 20.775137361126383 13.486693725113405 1.6723000000000028
    vertex 13.087096143571614 19.061326425315958 1.6723000000000028
  endloop
endfacet
facet normal 0.0 0.0 1.0
  outer loop
    vertex 13.087096143571614 19.061326425315958 1.6723000000000028
    vertex 20.775137361126383 13.486693725113405 1.6723000000000028
    vertex 14.788288870751055 19.634408663395835 1.6723000000000028
  endloop
endfacet
facet normal 0.0 0.0 1.0
  outer loop
    vertex 14.788288870751055 19.634408663395835 1.6723000000000028
    vertex 20.775137361126383 13.486693725113405 1.6723000000000028
    vertex 16.28319026380376 20.628264674928662 1.6723000000000028
  endloop
endfacet
facet normal 0.0 0.0 1.0
  outer loop
    vertex 16.28319026380376 20.628264674928662 1.6723000000000028
    vertex 20.775137361126383 13.486693725113405 1.6723000000000028
    vertex 17.46992526323455 21.9751648151532 1.6723000000000028
  endloop
endfacet
facet normal 0.0 0.0 1.0
  outer loop
    vertex 17.46992526323455 21.9751648151532 1.6723000000000028
    vertex 20.775137361126383 13.486693725113405 1.6723000000000028
    vertex 18.26761984000453 23.58332006537087 1.6723000000000028
  endloop
endfacet
facet normal 0.0 0.0 1.0
  outer loop
    vertex 18.26761984000453 23.58332006537087 1.6723000000000028
    vertex 20.775137361126383 13.486693725113405 1.6723000000000028
    vertex 18.621912426959433 25.34313730288153 1.6723000000000028
  endloop
endfacet
facet normal 0.0 0.0 1.0
  outer loop
    vertex 0.0 0.0 1.6723
    vertex 3.6426373611263823 6.696793725113406 1.6723000000000028
    vertex 0.0 34.12772838456066 1.6723
  endloop
endfacet
facet normal 0.0 0.0 1.0
  outer loop
    vertex 3.6426373611263823 6.696793725113406 1.6723000000000028
    vertex 0.0 0.0 1.6723
    vertex 24.437500000000092 0.0 1.6723
  endloop
endfacet
facet normal 0.0 0.0 1.0
  outer loop
    vertex 3.6426373611263823 6.696793725113406 1.6723000000000028
    vertex 24.437500000000092 0.0 1.6723
    vertex 20.775137361126383 6.696793725113406 1.6723000000000028
  endloop
endfacet
facet normal 0.0 0.0 1.0
  outer loop
    vertex 20.775137361126383 6.696793725113406 1.6723000000000028
    vertex 24.437500000000092 0.0 1.6723
    vertex 20.775137361126383 13.486693725113405 1.6723000000000028
  endloop
endfacet
facet normal 0.0 0.0 1.0
  outer loop
    vertex 0.0 34.12772838456066 1.6723
    vertex 10.435297103926095 32.5562503174072 1.6723000000000028
    vertex 24.43750000000046 34.12772838456064 1.6723
  endloop
endfacet
facet normal 0.0 0.0 1.0
  outer loop
    vertex 10.435297103926095 32.5562503174072 1.6723000000000028
    vertex 0.0 34.12772838456066 1.6723
    vertex 8.734104376746656 31.983168079327324 1.6723000000000028
  endloop
endfacet
facet normal 0.0 0.0 1.0
  outer loop
    vertex 8.734104376746656 31.983168079327324 1.6723000000000028
    vertex 0.0 34.12772838456066 1.6723
    vertex 7.239202983693947 30.989312067794494 1.6723000000000028
  endloop
endfacet
facet normal 0.0 0.0 1.0
  outer loop
    vertex 7.239202983693947 30.989312067794494 1.6723000000000028
    vertex 0.0 34.12772838456066 1.6723
    vertex 6.05246798426316 29.64241192756996 1.6723000000000028
  endloop
endfacet
facet normal 0.0 0.0 1.0
  outer loop
    vertex 6.05246798426316 29.64241192756996 1.6723000000000028
    vertex 0.0 34.12772838456066 1.6723
    vertex 5.254773407493183 28.034256677352293 1.6723000000000028
  endloop
endfacet
facet normal 0.0 0.0 1.0
  outer loop
    vertex 5.254773407493183 28.034256677352293 1.6723000000000028
    vertex 0.0 34.12772838456066 1.6723
    vertex 4.900480820538277 26.274439439841625 1.6723000000000028
  endloop
endfacet
facet normal 0.0 0.0 1.0
  outer loop
    vertex 4.900480820538277 26.274439439841625 1.6723000000000028
    vertex 0.0 34.12772838456066 1.6723
    vertex 3.6426373611263823 13.486693725113405 1.6723000000000028
  endloop
endfacet
facet normal 0.0 0.0 1.0
  outer loop
    vertex 3.6426373611263823 13.486693725113405 1.6723000000000028
    vertex 0.0 34.12772838456066 1.6723
    vertex 3.6426373611263823 6.696793725113406 1.6723000000000028
  endloop
endfacet
facet normal 0.0 0.0 1.0
  outer loop
    vertex 24.43750000000046 34.12772838456064 1.6723
    vertex 10.435297103926095 32.5562503174072 1.6723000000000028
    vertex 12.226847692228901 32.669504174572154 1.6723000000000028
  endloop
endfacet
facet normal 0.0 0.0 1.0
  outer loop
    vertex 24.43750000000046 34.12772838456064 1.6723
    vertex 12.226847692228901 32.669504174572154 1.6723000000000028
    vertex 13.986664929739565 32.315211587617256 1.6723000000000028
  endloop
endfacet
facet normal 0.0 0.0 1.0
  outer loop
    vertex 24.43750000000046 34.12772838456064 1.6723
    vertex 13.986664929739565 32.315211587617256 1.6723000000000028
    vertex 15.594820179957235 31.517517010847275 1.6723000000000028
  endloop
endfacet
facet normal 0.0 0.0 1.0
  outer loop
    vertex 24.43750000000046 34.12772838456064 1.6723
    vertex 15.594820179957235 31.517517010847275 1.6723000000000028
    vertex 16.94172032018177 30.330782011416492 1.6723000000000028
  endloop
endfacet
facet normal 0.0 0.0 1.0
  outer loop
    vertex 24.43750000000046 34.12772838456064 1.6723
    vertex 16.94172032018177 30.330782011416492 1.6723000000000028
    vertex 17.9355763317146 28.835880618363785 1.6723000000000028
  endloop
endfacet
facet normal 0.0 0.0 1.0
  outer loop
    vertex 24.43750000000046 34.12772838456064 1.6723
    vertex 17.9355763317146 28.835880618363785 1.6723000000000028
    vertex 18.508658569794477 27.13468789118434 1.6723000000000028
  endloop
endfacet
facet normal 0.0 0.0 1.0
  outer loop
    vertex 24.43750000000046 34.12772838456064 1.6723
    vertex 18.508658569794477 27.13468789118434 1.6723000000000028
    vertex 18.621912426959433 25.34313730288153 1.6723000000000028
  endloop
endfacet
facet normal 0.0 0.0 1.0
  outer loop
    vertex 24.43750000000046 34.12772838456064 1.6723
    vertex 18.621912426959433 25.34313730288153 1.6723000000000028
    vertex 20.775137361126383 13.486693725113405 1.6723000000000028
  endloop
endfacet
facet normal 0.0 0.0 1.0
  outer loop
    vertex 24.43750000000046 34.12772838456064 1.6723
    vertex 20.775137361126383 13.486693725113405 1.6723000000000028
    vertex 24.437500000000092 0.0 1.6723
  endloop
endfacet
facet normal 1.0 -1.0741870616184177e-14 0.0
  outer loop
    vertex 24.43750000000046 34.12772838456064 0.0
    vertex 24.437500000000092 0.0 1.6723
    vertex 24.437500000000092 0.0 0.0
  endloop
endfacet
facet normal 1.0 -1.0741870616184177e-14 0.0
  outer loop
    vertex 24.437500000000092 0.0 1.6723
    vertex 24.43750000000046 34.12772838456064 0.0
    vertex 24.43750000000046 34.12772838456064 1.6723
  endloop
endfacet
facet normal -1.0 0.0 0.0
  outer loop
    vertex 0.0 34.12772838456066 1.6723
    vertex 0.0 0.0 0.0
    vertex 0.0 0.0 1.6723
  endloop
endfacet
facet normal -1.0 0.0 0.0
  outer loop
    vertex 0.0 0.0 0.0
    vertex 0.0 34.12772838456066 1.6723
    vertex 0.0 34.12772838456066 0.0
  endloop
endfacet
facet normal 9.231603830335653e-16 1.0 0.0
  outer loop
    vertex 0.0 34.12772838456066 1.6723
    vertex 24.43750000000046 34.12772838456064 0.0
    vertex 0.0 34.12772838456066 0.0
  endloop
endfacet
facet normal 9.231603830335653e-16 1.0 0.0
  outer loop
    vertex 24.43750000000046 34.12772838456064 0.0
    vertex 0.0 34.12772838456066 1.6723
    vertex 24.43750000000046 34.12772838456064 1.6723
  endloop
endfacet
facet normal 0.0 0.0 1.0
  outer loop
    vertex 5.013734677703235 24.48288885153882 13.697329428641584
    vertex 5.254773407493183 28.034256677352293 13.697329428641584
    vertex 4.900480820538277 26.274439439841625 13.697329428641584
  endloop
endfacet
facet normal 0.0 0.0 1.0
  outer loop
    vertex 5.254773407493183 28.034256677352293 13.697329428641584
    vertex 5.013734677703235 24.48288885153882 13.697329428641584
    vertex 5.586816915783111 22.781696124359378 13.697329428641584
  endloop
endfacet
facet normal 0.0 0.0 1.0
  outer loop
    vertex 5.254773407493183 28.034256677352293 13.697329428641584
    vertex 5.586816915783111 22.781696124359378 13.697329428641584
    vertex 6.05246798426316 29.64241192756996 13.697329428641584
  endloop
endfacet
facet normal 0.0 0.0 1.0
  outer loop
    vertex 6.05246798426316 29.64241192756996 13.697329428641584
    vertex 5.586816915783111 22.781696124359378 13.697329428641584
    vertex 6.231458133453854 26.184103237955544 13.697329428641584
  endloop
endfacet
facet normal 0.0 0.0 1.0
  outer loop
    vertex 6.231458133453854 26.184103237955544 13.697329428641584
    vertex 5.586816915783111 22.781696124359378 13.697329428641584
    vertex 6.322740767963561 24.740113058270122 13.697329428641584
  endloop
endfacet
facet normal 0.0 0.0 1.0
  outer loop
    vertex 6.322740767963561 24.740113058270122 13.697329428641584
    vertex 5.586816915783111 22.781696124359378 13.697329428641584
    vertex 6.580672927315941 21.286794731306674 13.697329428641584
  endloop
endfacet
facet normal 0.0 0.0 1.0
  outer loop
    vertex 6.322740767963561 24.740113058270122 13.697329428641584
    vertex 6.580672927315941 21.286794731306674 13.697329428641584
    vertex 6.784645181571791 23.368951335102423 13.697329428641584
  endloop
endfacet
facet normal 0.0 0.0 1.0
  outer loop
    vertex 6.784645181571791 23.368951335102423 13.697329428641584
    vertex 6.580672927315941 21.286794731306674 13.697329428641584
    vertex 7.927573067540477 20.100059731875884 13.697329428641584
  endloop
endfacet
facet normal 0.0 0.0 1.0
  outer loop
    vertex 6.784645181571791 23.368951335102423 13.697329428641584
    vertex 7.927573067540477 20.100059731875884 13.697329428641584
    vertex 7.585693351824285 22.164060473934434 13.697329428641584
  endloop
endfacet
facet normal 0.0 0.0 1.0
  outer loop
    vertex 7.585693351824285 22.164060473934434 13.697329428641584
    vertex 7.927573067540477 20.100059731875884 13.697329428641584
    vertex 8.671295169713018 21.20755179577848 13.697329428641584
  endloop
endfacet
facet normal 0.0 0.0 1.0
  outer loop
    vertex 8.671295169713018 21.20755179577848 13.697329428641584
    vertex 7.927573067540477 20.100059731875884 13.697329428641584
    vertex 9.535728317758142 19.302365155105903 13.697329428641584
  endloop
endfacet
facet normal 0.0 0.0 1.0
  outer loop
    vertex 8.671295169713018 21.20755179577848 13.697329428641584
    vertex 9.535728317758142 19.302365155105903 13.697329428641584
    vertex 9.967468665390705 20.564609786345546 13.697329428641584
  endloop
endfacet
facet normal 0.0 0.0 1.0
  outer loop
    vertex 9.967468665390705 20.564609786345546 13.697329428641584
    vertex 9.535728317758142 19.302365155105903 13.697329428641584
    vertex 11.295545555268808 18.948072568151 13.697329428641584
  endloop
endfacet
facet normal 0.0 0.0 1.0
  outer loop
    vertex 9.967468665390705 20.564609786345546 13.697329428641584
    vertex 11.295545555268808 18.948072568151 13.697329428641584
    vertex 11.385881757154891 20.27904988106658 13.697329428641584
  endloop
endfacet
facet normal 0.0 0.0 1.0
  outer loop
    vertex 11.385881757154891 20.27904988106658 13.697329428641584
    vertex 11.295545555268808 18.948072568151 13.697329428641584
    vertex 13.087096143571614 19.061326425315958 13.697329428641584
  endloop
endfacet
facet normal 0.0 0.0 1.0
  outer loop
    vertex 11.385881757154891 20.27904988106658 13.697329428641584
    vertex 13.087096143571614 19.061326425315958 13.697329428641584
    vertex 12.829871936840314 20.370332515576287 13.697329428641584
  endloop
endfacet
facet normal 0.0 0.0 1.0
  outer loop
    vertex 12.829871936840314 20.370332515576287 13.697329428641584
    vertex 13.087096143571614 19.061326425315958 13.697329428641584
    vertex 14.201033660008015 20.832236929184514 13.697329428641584
  endloop
endfacet
facet normal 0.0 0.0 1.0
  outer loop
    vertex 14.201033660008015 20.832236929184514 13.697329428641584
    vertex 13.087096143571614 19.061326425315958 13.697329428641584
    vertex 14.788288870751055 19.634408663395835 13.697329428641584
  endloop
endfacet
facet normal 0.0 0.0 1.0
  outer loop
    vertex 14.201033660008015 20.832236929184514 13.697329428641584
    vertex 14.788288870751055 19.634408663395835 13.697329428641584
    vertex 15.405924521175994 21.633285099437003 13.697329428641584
  endloop
endfacet
facet normal 0.0 0.0 1.0
  outer loop
    vertex 15.405924521175994 21.633285099437003 13.697329428641584
    vertex 14.788288870751055 19.634408663395835 13.697329428641584
    vertex 16.28319026380376 20.628264674928662 13.697329428641584
  endloop
endfacet
facet normal 0.0 0.0 1.0
  outer loop
    vertex 15.405924521175994 21.633285099437003 13.697329428641584
    vertex 16.28319026380376 20.628264674928662 13.697329428641584
    vertex 16.36243319933195 22.718886917325733 13.697329428641584
  endloop
endfacet
facet normal 0.0 0.0 1.0
  outer loop
    vertex 16.36243319933195 22.718886917325733 13.697329428641584
    vertex 16.28319026380376 20.628264674928662 13.697329428641584
    vertex 17.46992526323455 21.9751648151532 13.697329428641584
  endloop
endfacet
facet normal 0.0 0.0 1.0
  outer loop
    vertex 16.36243319933195 22.718886917325733 13.697329428641584
    vertex 17.46992526323455 21.9751648151532 13.697329428641584
    vertex 17.00537520876489 24.015060413003418 13.697329428641584
  endloop
endfacet
facet normal 0.0 0.0 1.0
  outer loop
    vertex 17.00537520876489 24.015060413003418 13.697329428641584
    vertex 17.46992526323455 21.9751648151532 13.697329428641584
    vertex 17.290935114043855 25.4334735047676 13.697329428641584
  endloop
endfacet
facet normal 0.0 0.0 1.0
  outer loop
    vertex 6.05246798426316 29.64241192756996 13.697329428641584
    vertex 6.5170180387328225 27.602516329719734 13.697329428641584
    vertex 7.239202983693947 30.989312067794494 13.697329428641584
  endloop
endfacet
facet normal 0.0 0.0 1.0
  outer loop
    vertex 6.5170180387328225 27.602516329719734 13.697329428641584
    vertex 6.05246798426316 29.64241192756996 13.697329428641584
    vertex 6.231458133453854 26.184103237955544 13.697329428641584
  endloop
endfacet
facet normal 0.0 0.0 1.0
  outer loop
    vertex 7.239202983693947 30.989312067794494 13.697329428641584
    vertex 6.5170180387328225 27.602516329719734 13.697329428641584
    vertex 7.15996004816576 28.89868982539742 13.697329428641584
  endloop
endfacet
facet normal 0.0 0.0 1.0
  outer loop
    vertex 7.239202983693947 30.989312067794494 13.697329428641584
    vertex 7.15996004816576 28.89868982539742 13.697329428641584
    vertex 8.116468726321719 29.984291643286152 13.697329428641584
  endloop
endfacet
facet normal 0.0 0.0 1.0
  outer loop
    vertex 7.239202983693947 30.989312067794494 13.697329428641584
    vertex 8.116468726321719 29.984291643286152 13.697329428641584
    vertex 8.734104376746656 31.983168079327324 13.697329428641584
  endloop
endfacet
facet normal 0.0 0.0 1.0
  outer loop
    vertex 8.734104376746656 31.983168079327324 13.697329428641584
    vertex 8.116468726321719 29.984291643286152 13.697329428641584
    vertex 9.321359587489699 30.785339813538645 13.697329428641584
  endloop
endfacet
facet normal 0.0 0.0 1.0
  outer loop
    vertex 8.734104376746656 31.983168079327324 13.697329428641584
    vertex 9.321359587489699 30.785339813538645 13.697329428641584
    vertex 10.435297103926095 32.5562503174072 13.697329428641584
  endloop
endfacet
facet normal 0.0 0.0 1.0
  outer loop
    vertex 10.435297103926095 32.5562503174072 13.697329428641584
    vertex 9.321359587489699 30.785339813538645 13.697329428641584
    vertex 10.6925213106574 31.247244227146876 13.697329428641584
  endloop
endfacet
facet normal 0.0 0.0 1.0
  outer loop
    vertex 10.435297103926095 32.5562503174072 13.697329428641584
    vertex 10.6925213106574 31.247244227146876 13.697329428641584
    vertex 12.226847692228901 32.669504174572154 13.697329428641584
  endloop
endfacet
facet normal 0.0 0.0 1.0
  outer loop
    vertex 12.226847692228901 32.669504174572154 13.697329428641584
    vertex 10.6925213106574 31.247244227146876 13.697329428641584
    vertex 12.136511490342825 31.338526861656586 13.697329428641584
  endloop
endfacet
facet normal 0.0 0.0 1.0
  outer loop
    vertex 12.226847692228901 32.669504174572154 13.697329428641584
    vertex 12.136511490342825 31.338526861656586 13.697329428641584
    vertex 13.554924582107015 31.05296695637761 13.697329428641584
  endloop
endfacet
facet normal 0.0 0.0 1.0
  outer loop
    vertex 12.226847692228901 32.669504174572154 13.697329428641584
    vertex 13.554924582107015 31.05296695637761 13.697329428641584
    vertex 13.986664929739565 32.315211587617256 13.697329428641584
  endloop
endfacet
facet normal 0.0 0.0 1.0
  outer loop
    vertex 13.986664929739565 32.315211587617256 13.697329428641584
    vertex 13.554924582107015 31.05296695637761 13.697329428641584
    vertex 14.851098077784703 30.410024946944674 13.697329428641584
  endloop
endfacet
facet normal 0.0 0.0 1.0
  outer loop
    vertex 13.986664929739565 32.315211587617256 13.697329428641584
    vertex 14.851098077784703 30.410024946944674 13.697329428641584
    vertex 15.594820179957235 31.517517010847275 13.697329428641584
  endloop
endfacet
facet normal 0.0 0.0 1.0
  outer loop
    vertex 15.594820179957235 31.517517010847275 13.697329428641584
    vertex 14.851098077784703 30.410024946944674 13.697329428641584
    vertex 15.936699895673433 29.45351626878871 13.697329428641584
  endloop
endfacet
facet normal 0.0 0.0 1.0
  outer loop
    vertex 15.594820179957235 31.517517010847275 13.697329428641584
    vertex 15.936699895673433 29.45351626878871 13.697329428641584
    vertex 16.94172032018177 30.330782011416492 13.697329428641584
  endloop
endfacet
facet normal 0.0 0.0 1.0
  outer loop
    vertex 16.94172032018177 30.330782011416492 13.697329428641584
    vertex 15.936699895673433 29.45351626878871 13.697329428641584
    vertex 16.73774806592592 28.248625407620736 13.697329428641584
  endloop
endfacet
facet normal 0.0 0.0 1.0
  outer loop
    vertex 16.94172032018177 30.330782011416492 13.697329428641584
    vertex 16.73774806592592 28.248625407620736 13.697329428641584
    vertex 17.19965247953415 26.87746368445303 13.697329428641584
  endloop
endfacet
facet normal 0.0 0.0 1.0
  outer loop
    vertex 16.94172032018177 30.330782011416492 13.697329428641584
    vertex 17.19965247953415 26.87746368445303 13.697329428641584
    vertex 17.9355763317146 28.835880618363785 13.697329428641584
  endloop
endfacet
facet normal 0.0 0.0 1.0
  outer loop
    vertex 17.9355763317146 28.835880618363785 13.697329428641584
    vertex 17.19965247953415 26.87746368445303 13.697329428641584
    vertex 17.290935114043855 25.4334735047676 13.697329428641584
  endloop
endfacet
facet normal 0.0 0.0 1.0
  outer loop
    vertex 17.9355763317146 28.835880618363785 13.697329428641584
    vertex 17.290935114043855 25.4334735047676 13.697329428641584
    vertex 17.46992526323455 21.9751648151532 13.697329428641584
  endloop
endfacet
facet normal 0.0 0.0 1.0
  outer loop
    vertex 17.9355763317146 28.835880618363785 13.697329428641584
    vertex 17.46992526323455 21.9751648151532 13.697329428641584
    vertex 18.26761984000453 23.58332006537087 13.697329428641584
  endloop
endfacet
facet normal 0.0 0.0 1.0
  outer loop
    vertex 17.9355763317146 28.835880618363785 13.697329428641584
    vertex 18.26761984000453 23.58332006537087 13.697329428641584
    vertex 18.508658569794477 27.13468789118434 13.697329428641584
  endloop
endfacet
facet normal 0.0 0.0 1.0
  outer loop
    vertex 18.508658569794477 27.13468789118434 13.697329428641584
    vertex 18.26761984000453 23.58332006537087 13.697329428641584
    vertex 18.621912426959433 25.34313730288153 13.697329428641584
  endloop
endfacet
facet normal -0.9476727780314701 -0.31924333317724274 0.0
  outer loop
    vertex 5.013734677703235 24.48288885153882 13.697329428641584
    vertex 5.586816915783111 22.781696124359378 1.6723000000000028
    vertex 5.586816915783111 22.781696124359378 13.697329428641584
  endloop
endfacet
facet normal -0.9476727780314701 -0.31924333317724274 0.0
  outer loop
    vertex 5.586816915783111 22.781696124359378 1.6723000000000028
    vertex 5.013734677703235 24.48288885153882 13.697329428641584
    vertex 5.013734677703235 24.48288885153882 1.6723000000000028
  endloop
endfacet
facet normal -0.8327553565234247 -0.553641143866263 0.0
  outer loop
    vertex 5.586816915783111 22.781696124359378 13.697329428641584
    vertex 6.580672927315941 21.286794731306674 1.6723000000000028
    vertex 6.580672927315941 21.286794731306674 13.697329428641584
  endloop
endfacet
facet normal -0.8327553565234247 -0.553641143866263 0.0
  outer loop
    vertex 6.580672927315941 21.286794731306674 1.6723000000000028
    vertex 5.586816915783111 22.781696124359378 13.697329428641584
    vertex 5.586816915783111 22.781696124359378 1.6723000000000028
  endloop
endfacet
facet normal -0.6610870336616038 -0.7503092255360463 0.0
  outer loop
    vertex 7.927573067540477 20.100059731875884 13.697329428641584
    vertex 6.580672927315941 21.286794731306674 1.6723000000000028
    vertex 7.927573067540477 20.100059731875884 1.6723000000000028
  endloop
endfacet
facet normal -0.6610870336616038 -0.7503092255360463 0.0
  outer loop
    vertex 6.580672927315941 21.286794731306674 1.6723000000000028
    vertex 7.927573067540477 20.100059731875884 13.697329428641584
    vertex 6.580672927315941 21.286794731306674 13.697329428641584
  endloop
endfacet
facet normal -0.4443667219537225 -0.8958449734301706 0.0
  outer loop
    vertex 9.535728317758142 19.302365155105903 13.697329428641584
    vertex 7.927573067540477 20.100059731875884 1.6723000000000028
    vertex 9.535728317758142 19.302365155105903 1.6723000000000028
  endloop
endfacet
facet normal -0.4443667219537225 -0.8958449734301706 0.0
  outer loop
    vertex 7.927573067540477 20.100059731875884 1.6723000000000028
    vertex 9.535728317758142 19.302365155105903 13.697329428641584
    vertex 7.927573067540477 20.100059731875884 13.697329428641584
  endloop
endfacet
facet normal -0.19736355249542217 -0.9803303668388462 0.0
  outer loop
    vertex 11.295545555268808 18.948072568151 13.697329428641584
    vertex 9.535728317758142 19.302365155105903 1.6723000000000028
    vertex 11.295545555268808 18.948072568151 1.6723000000000028
  endloop
endfacet
facet normal -0.19736355249542217 -0.9803303668388462 0.0
  outer loop
    vertex 9.535728317758142 19.302365155105903 1.6723000000000028
    vertex 11.295545555268808 18.948072568151 13.697329428641584
    vertex 9.535728317758142 19.302365155105903 13.697329428641584
  endloop
endfacet
facet normal 0.06308961690674676 -0.9980078658199844 0.0
  outer loop
    vertex 13.087096143571614 19.061326425315958 13.697329428641584
    vertex 11.295545555268808 18.948072568151 1.6723000000000028
    vertex 13.087096143571614 19.061326425315958 1.6723000000000028
  endloop
endfacet
facet normal 0.06308961690674676 -0.9980078658199844 0.0
  outer loop
    vertex 11.295545555268808 18.948072568151 1.6723000000000028
    vertex 13.087096143571614 19.061326425315958 13.697329428641584
    vertex 11.295545555268808 18.948072568151 13.697329428641584
  endloop
endfacet
facet normal 0.3192433331772431 -0.9476727780314701 0.0
  outer loop
    vertex 14.788288870751055 19.634408663395835 13.697329428641584
    vertex 13.087096143571614 19.061326425315958 1.6723000000000028
    vertex 14.788288870751055 19.634408663395835 1.6723000000000028
  endloop
endfacet
facet normal 0.3192433331772431 -0.9476727780314701 0.0
  outer loop
    vertex 13.087096143571614 19.061326425315958 1.6723000000000028
    vertex 14.788288870751055 19.634408663395835 13.697329428641584
    vertex 13.087096143571614 19.061326425315958 13.697329428641584
  endloop
endfacet
facet normal 0.5536411438662622 -0.8327553565234251 0.0
  outer loop
    vertex 16.28319026380376 20.628264674928662 13.697329428641584
    vertex 14.788288870751055 19.634408663395835 1.6723000000000028
    vertex 16.28319026380376 20.628264674928662 1.6723000000000028
  endloop
endfacet
facet normal 0.5536411438662622 -0.8327553565234251 0.0
  outer loop
    vertex 14.788288870751055 19.634408663395835 1.6723000000000028
    vertex 16.28319026380376 20.628264674928662 13.697329428641584
    vertex 14.788288870751055 19.634408663395835 13.697329428641584
  endloop
endfacet
facet normal 0.7503092255360465 -0.6610870336616034 0.0
  outer loop
    vertex 17.46992526323455 21.9751648151532 1.6723000000000028
    vertex 16.28319026380376 20.628264674928662 13.697329428641584
    vertex 16.28319026380376 20.628264674928662 1.6723000000000028
  endloop
endfacet
facet normal 0.7503092255360465 -0.6610870336616034 0.0
  outer loop
    vertex 16.28319026380376 20.628264674928662 13.697329428641584
    vertex 17.46992526323455 21.9751648151532 1.6723000000000028
    vertex 17.46992526323455 21.9751648151532 13.697329428641584
  endloop
endfacet
facet normal 0.8958449734301712 -0.4443667219537213 0.0
  outer loop
    vertex 18.26761984000453 23.58332006537087 1.6723000000000028
    vertex 17.46992526323455 21.9751648151532 13.697329428641584
    vertex 17.46992526323455 21.9751648151532 1.6723000000000028
  endloop
endfacet
facet normal 0.8958449734301712 -0.4443667219537213 0.0
  outer loop
    vertex 17.46992526323455 21.9751648151532 13.697329428641584
    vertex 18.26761984000453 23.58332006537087 1.6723000000000028
    vertex 18.26761984000453 23.58332006537087 13.697329428641584
  endloop
endfacet
facet normal 0.9803303668388462 -0.19736355249542267 0.0
  outer loop
    vertex 18.621912426959433 25.34313730288153 1.6723000000000028
    vertex 18.26761984000453 23.58332006537087 13.697329428641584
    vertex 18.26761984000453 23.58332006537087 1.6723000000000028
  endloop
endfacet
facet normal 0.9803303668388462 -0.19736355249542267 0.0
  outer loop
    vertex 18.26761984000453 23.58332006537087 13.697329428641584
    vertex 18.621912426959433 25.34313730288153 1.6723000000000028
    vertex 18.621912426959433 25.34313730288153 13.697329428641584
  endloop
endfacet
facet normal 0.9980078658199844 0.06308961690674682 0.0
  outer loop
    vertex 18.508658569794477 27.13468789118434 1.6723000000000028
    vertex 18.621912426959433 25.34313730288153 13.697329428641584
    vertex 18.621912426959433 25.34313730288153 1.6723000000000028
  endloop
endfacet
facet normal 0.9980078658199844 0.06308961690674682 0.0
  outer loop
    vertex 18.621912426959433 25.34313730288153 13.697329428641584
    vertex 18.508658569794477 27.13468789118434 1.6723000000000028
    vertex 18.508658569794477 27.13468789118434 13.697329428641584
  endloop
endfacet
facet normal 0.9476727780314703 0.3192433331772422 0.0
  outer loop
    vertex 17.9355763317146 28.835880618363785 1.6723000000000028
    vertex 18.508658569794477 27.13468789118434 13.697329428641584
    vertex 18.508658569794477 27.13468789118434 1.6723000000000028
  endloop
endfacet
facet normal 0.9476727780314703 0.3192433331772422 0.0
  outer loop
    vertex 18.508658569794477 27.13468789118434 13.697329428641584
    vertex 17.9355763317146 28.835880618363785 1.6723000000000028
    vertex 17.9355763317146 28.835880618363785 13.697329428641584
  endloop
endfacet
facet normal 0.8327553565234244 0.5536411438662632 0.0
  outer loop
    vertex 16.94172032018177 30.330782011416492 1.6723000000000028
    vertex 17.9355763317146 28.835880618363785 13.697329428641584
    vertex 17.9355763317146 28.835880618363785 1.6723000000000028
  endloop
endfacet
facet normal 0.8327553565234244 0.5536411438662632 0.0
  outer loop
    vertex 17.9355763317146 28.835880618363785 13.697329428641584
    vertex 16.94172032018177 30.330782011416492 1.6723000000000028
    vertex 16.94172032018177 30.330782011416492 13.697329428641584
  endloop
endfacet
facet normal 0.6610870336616024 0.7503092255360474 0.0
  outer loop
    vertex 15.594820179957235 31.517517010847275 13.697329428641584
    vertex 16.94172032018177 30.330782011416492 1.6723000000000028
    vertex 15.594820179957235 31.517517010847275 1.6723000000000028
  endloop
endfacet
facet normal 0.6610870336616024 0.7503092255360474 0.0
  outer loop
    vertex 16.94172032018177 30.330782011416492 1.6723000000000028
    vertex 15.594820179957235 31.517517010847275 13.697329428641584
    vertex 16.94172032018177 30.330782011416492 13.697329428641584
  endloop
endfacet
facet normal 0.4443667219537213 0.8958449734301712 0.0
  outer loop
    vertex 13.986664929739565 32.315211587617256 13.697329428641584
    vertex 15.594820179957235 31.517517010847275 1.6723000000000028
    vertex 13.986664929739565 32.315211587617256 1.6723000000000028
  endloop
endfacet
facet normal 0.4443667219537213 0.8958449734301712 0.0
  outer loop
    vertex 15.594820179957235 31.517517010847275 1.6723000000000028
    vertex 13.986664929739565 32.315211587617256 13.697329428641584
    vertex 15.594820179957235 31.517517010847275 13.697329428641584
  endloop
endfacet
facet normal 0.1973635524954225 0.9803303668388462 0.0
  outer loop
    vertex 12.226847692228901 32.669504174572154 13.697329428641584
    vertex 13.986664929739565 32.315211587617256 1.6723000000000028
    vertex 12.226847692228901 32.669504174572154 1.6723000000000028
  endloop
endfacet
facet normal 0.1973635524954225 0.9803303668388462 0.0
  outer loop
    vertex 13.986664929739565 32.315211587617256 1.6723000000000028
    vertex 12.226847692228901 32.669504174572154 13.697329428641584
    vertex 13.986664929739565 32.315211587617256 13.697329428641584
  endloop
endfacet
facet normal -0.06308961690674676 0.9980078658199844 0.0
  outer loop
    vertex 10.435297103926095 32.5562503174072 13.697329428641584
    vertex 12.226847692228901 32.669504174572154 1.6723000000000028
    vertex 10.435297103926095 32.5562503174072 1.6723000000000028
  endloop
endfacet
facet normal -0.06308961690674676 0.9980078658199844 0.0
  outer loop
    vertex 12.226847692228901 32.669504174572154 1.6723000000000028
    vertex 10.435297103926095 32.5562503174072 13.697329428641584
    vertex 12.226847692228901 32.669504174572154 13.697329428641584
  endloop
endfacet
facet normal -0.31924333317724346 0.9476727780314699 0.0
  outer loop
    vertex 8.734104376746656 31.983168079327324 13.697329428641584
    vertex 10.435297103926095 32.5562503174072 1.6723000000000028
    vertex 8.734104376746656 31.983168079327324 1.6723000000000028
  endloop
endfacet
facet normal -0.31924333317724346 0.9476727780314699 0.0
  outer loop
    vertex 10.435297103926095 32.5562503174072 1.6723000000000028
    vertex 8.734104376746656 31.983168079327324 13.697329428641584
    vertex 10.435297103926095 32.5562503174072 13.697329428641584
  endloop
endfacet
facet normal -0.5536411438662618 0.8327553565234255 0.0
  outer loop
    vertex 7.239202983693947 30.989312067794494 13.697329428641584
    vertex 8.734104376746656 31.983168079327324 1.6723000000000028
    vertex 7.239202983693947 30.989312067794494 1.6723000000000028
  endloop
endfacet
facet normal -0.5536411438662618 0.8327553565234255 0.0
  outer loop
    vertex 8.734104376746656 31.983168079327324 1.6723000000000028
    vertex 7.239202983693947 30.989312067794494 13.697329428641584
    vertex 8.734104376746656 31.983168079327324 13.697329428641584
  endloop
endfacet
facet normal -0.7503092255360474 0.6610870336616025 0.0
  outer loop
    vertex 7.239202983693947 30.989312067794494 13.697329428641584
    vertex 6.05246798426316 29.64241192756996 1.6723000000000028
    vertex 6.05246798426316 29.64241192756996 13.697329428641584
  endloop
endfacet
facet normal -0.7503092255360474 0.6610870336616025 0.0
  outer loop
    vertex 6.05246798426316 29.64241192756996 1.6723000000000028
    vertex 7.239202983693947 30.989312067794494 13.697329428641584
    vertex 7.239202983693947 30.989312067794494 1.6723000000000028
  endloop
endfacet
facet normal -0.8958449734301709 0.44436672195372195 0.0
  outer loop
    vertex 6.05246798426316 29.64241192756996 13.697329428641584
    vertex 5.254773407493183 28.034256677352293 1.6723000000000028
    vertex 5.254773407493183 28.034256677352293 13.697329428641584
  endloop
endfacet
facet normal -0.8958449734301709 0.44436672195372195 0.0
  outer loop
    vertex 5.254773407493183 28.034256677352293 1.6723000000000028
    vertex 6.05246798426316 29.64241192756996 13.697329428641584
    vertex 6.05246798426316 29.64241192756996 1.6723000000000028
  endloop
endfacet
facet normal -0.9803303668388462 0.1973635524954228 0.0
  outer loop
    vertex 5.254773407493183 28.034256677352293 13.697329428641584
    vertex 4.900480820538277 26.274439439841625 1.6723000000000028
    vertex 4.900480820538277 26.274439439841625 13.697329428641584
  endloop
endfacet
facet normal -0.9803303668388462 0.1973635524954228 0.0
  outer loop
    vertex 4.900480820538277 26.274439439841625 1.6723000000000028
    vertex 5.254773407493183 28.034256677352293 13.697329428641584
    vertex 5.254773407493183 28.034256677352293 1.6723000000000028
  endloop
endfacet
facet normal -0.9980078658199844 -0.06308961690674682 0.0
  outer loop
    vertex 4.900480820538277 26.274439439841625 13.697329428641584
    vertex 5.013734677703235 24.48288885153882 1.6723000000000028
    vertex 5.013734677703235 24.48288885153882 13.697329428641584
  endloop
endfacet
facet normal -0.9980078658199844 -0.06308961690674682 0.0
  outer loop
    vertex 5.013734677703235 24.48288885153882 1.6723000000000028
    vertex 4.900480820538277 26.274439439841625 13.697329428641584
    vertex 4.900480820538277 26.274439439841625 1.6723000000000028
  endloop
endfacet
endsolid Untitled-5b07da3d
